<?xml version="1.0" encoding="UTF-8" standalone="no"?>
<svg
   class="bi bi-dice-3"
   fill="currentColor"
   height="128"
   viewBox="0 0 16 16"
   width="128"
   version="1.1"
   id="svg2"
   sodipodi:docname="2024-10-06 11-26-10.svg"
   inkscape:version="1.3.2 (091e20e, 2023-11-25, custom)"
   xmlns:inkscape="http://www.inkscape.org/namespaces/inkscape"
   xmlns:sodipodi="http://sodipodi.sourceforge.net/DTD/sodipodi-0.dtd"
   xmlns="http://www.w3.org/2000/svg"
   xmlns:svg="http://www.w3.org/2000/svg">
  <defs
     id="defs2" />
  <sodipodi:namedview
     id="namedview2"
     pagecolor="#505050"
     bordercolor="#ffffff"
     borderopacity="1"
     inkscape:showpageshadow="0"
     inkscape:pageopacity="0"
     inkscape:pagecheckerboard="1"
     inkscape:deskcolor="#505050"
     inkscape:zoom="3.2851563"
     inkscape:cx="-4.8703924"
     inkscape:cy="64.0761"
     inkscape:window-width="1920"
     inkscape:window-height="1051"
     inkscape:window-x="-9"
     inkscape:window-y="-9"
     inkscape:window-maximized="1"
     inkscape:current-layer="svg2" />
  <path
     d="m 13,1 a 2,2 0 0 1 2,2 v 10 a 2,2 0 0 1 -2,2 H 3 A 2,2 0 0 1 1,13 V 3 A 2,2 0 0 1 3,1 Z M 3,0 A 3,3 0 0 0 0,3 v 10 a 3,3 0 0 0 3,3 h 10 a 3,3 0 0 0 3,-3 V 3 A 3,3 0 0 0 13,0 Z"
     id="path1"
     style="fill:#ffffff" />
  <path
     d="m 5.5,4 a 1.5,1.5 0 1 1 -3,0 1.5,1.5 0 0 1 3,0 z m 8,8 a 1.5,1.5 0 1 1 -3,0 1.5,1.5 0 0 1 3,0 z m -4,-4 a 1.5,1.5 0 1 1 -3,0 1.5,1.5 0 0 1 3,0 z"
     id="path2"
     style="fill:#ffffff" />
</svg>
