<?xml version="1.0" encoding="UTF-8" standalone="no"?>
<svg
   viewBox="0 0 96 96"
   version="1.1"
   id="svg2"
   sodipodi:docname="exit.svg"
   inkscape:version="1.3.2 (091e20e, 2023-11-25, custom)"
   xmlns:inkscape="http://www.inkscape.org/namespaces/inkscape"
   xmlns:sodipodi="http://sodipodi.sourceforge.net/DTD/sodipodi-0.dtd"
   xmlns="http://www.w3.org/2000/svg"
   xmlns:svg="http://www.w3.org/2000/svg">
  <defs
     id="defs2" />
  <sodipodi:namedview
     id="namedview2"
     pagecolor="#505050"
     bordercolor="#ffffff"
     borderopacity="1"
     inkscape:showpageshadow="0"
     inkscape:pageopacity="0"
     inkscape:pagecheckerboard="1"
     inkscape:deskcolor="#505050"
     inkscape:zoom="8.7604167"
     inkscape:cx="47.942925"
     inkscape:cy="48"
     inkscape:window-width="1920"
     inkscape:window-height="1051"
     inkscape:window-x="-9"
     inkscape:window-y="-9"
     inkscape:window-maximized="1"
     inkscape:current-layer="svg2" />
  <title
     id="title1" />
  <g
     id="g2"
     style="fill:#ffffff">
    <path
       d="M20.4844,54H66a6,6,0,0,0,0-12H20.4844l7.7578-7.7578a5.9994,5.9994,0,0,0-8.4844-8.4844l-18,18a5.9979,5.9979,0,0,0,0,8.4844l18,18a5.9994,5.9994,0,1,0,8.4844-8.4844Z"
       id="path1"
       style="fill:#ffffff" />
    <path
       d="M90,0H42a5.9966,5.9966,0,0,0-6,6V18a6,6,0,0,0,12,0V12H84V84H48V78a6,6,0,0,0-12,0V90a5.9966,5.9966,0,0,0,6,6H90a5.9966,5.9966,0,0,0,6-6V6A5.9966,5.9966,0,0,0,90,0Z"
       id="path2"
       style="fill:#ffffff" />
  </g>
</svg>
