<?xml version="1.0" encoding="UTF-8" standalone="no"?>
<svg
   height="512px"
   id="Layer_1"
   style="enable-background:new 0 0 512 512;"
   version="1.1"
   viewBox="0 0 512 512"
   width="512px"
   xml:space="preserve"
   sodipodi:docname="pause.svg"
   inkscape:version="1.3.2 (091e20e, 2023-11-25, custom)"
   xmlns:inkscape="http://www.inkscape.org/namespaces/inkscape"
   xmlns:sodipodi="http://sodipodi.sourceforge.net/DTD/sodipodi-0.dtd"
   xmlns="http://www.w3.org/2000/svg"
   xmlns:svg="http://www.w3.org/2000/svg"><defs
     id="defs2" /><sodipodi:namedview
     id="namedview2"
     pagecolor="#505050"
     bordercolor="#ffffff"
     borderopacity="1"
     inkscape:showpageshadow="0"
     inkscape:pageopacity="0"
     inkscape:pagecheckerboard="1"
     inkscape:deskcolor="#505050"
     inkscape:zoom="1.6425781"
     inkscape:cx="255.6956"
     inkscape:cy="256"
     inkscape:window-width="1920"
     inkscape:window-height="1051"
     inkscape:window-x="-9"
     inkscape:window-y="-9"
     inkscape:window-maximized="1"
     inkscape:current-layer="g2" /><g
     id="g2"><path
       d="M224,435.8V76.1c0-6.7-5.4-12.1-12.2-12.1h-71.6c-6.8,0-12.2,5.4-12.2,12.1v359.7c0,6.7,5.4,12.2,12.2,12.2h71.6   C218.6,448,224,442.6,224,435.8z"
       id="path1"
       style="fill:#ffffff" /><path
       d="M371.8,64h-71.6c-6.7,0-12.2,5.4-12.2,12.1v359.7c0,6.7,5.4,12.2,12.2,12.2h71.6c6.7,0,12.2-5.4,12.2-12.2V76.1   C384,69.4,378.6,64,371.8,64z"
       id="path2"
       style="fill:#ffffff" /></g></svg>
