<?xml version="1.0" encoding="UTF-8" standalone="no"?>
<svg
   height="32px"
   id="Layer_1"
   style="enable-background:new 0 0 32 32;"
   version="1.1"
   viewBox="0 0 32 32"
   width="32px"
   xml:space="preserve"
   sodipodi:docname="restart.svg"
   inkscape:version="1.3.2 (091e20e, 2023-11-25, custom)"
   xmlns:inkscape="http://www.inkscape.org/namespaces/inkscape"
   xmlns:sodipodi="http://sodipodi.sourceforge.net/DTD/sodipodi-0.dtd"
   xmlns="http://www.w3.org/2000/svg"
   xmlns:svg="http://www.w3.org/2000/svg"><defs
     id="defs1" /><sodipodi:namedview
     id="namedview1"
     pagecolor="#505050"
     bordercolor="#ffffff"
     borderopacity="1"
     inkscape:showpageshadow="0"
     inkscape:pageopacity="0"
     inkscape:pagecheckerboard="1"
     inkscape:deskcolor="#505050"
     inkscape:zoom="26.28125"
     inkscape:cx="15.980975"
     inkscape:cy="16"
     inkscape:window-width="1920"
     inkscape:window-height="1051"
     inkscape:window-x="-9"
     inkscape:window-y="-9"
     inkscape:window-maximized="1"
     inkscape:current-layer="Layer_1" /><path
     d="M28,16c-1.219,0-1.797,0.859-2,1.766C25.269,21.03,22.167,26,16,26c-5.523,0-10-4.478-10-10S10.477,6,16,6  c2.24,0,4.295,0.753,5.96,2H20c-1.104,0-2,0.896-2,2s0.896,2,2,2h6c1.104,0,2-0.896,2-2V4c0-1.104-0.896-2-2-2s-2,0.896-2,2v0.518  C21.733,2.932,18.977,2,16,2C8.268,2,2,8.268,2,16s6.268,14,14,14c9.979,0,14-9.5,14-11.875C30,16.672,28.938,16,28,16z"
     id="path1"
     style="fill:#ffffff" /></svg>
