<?xml version="1.0" encoding="UTF-8" standalone="no"?>
<svg
   height="512"
   id="Layer_1"
   version="1.1"
   viewBox="0 0 512 512"
   width="512"
   xml:space="preserve"
   sodipodi:docname="restart.svg"
   inkscape:version="1.3.2 (091e20e, 2023-11-25, custom)"
   xmlns:inkscape="http://www.inkscape.org/namespaces/inkscape"
   xmlns:sodipodi="http://sodipodi.sourceforge.net/DTD/sodipodi-0.dtd"
   xmlns="http://www.w3.org/2000/svg"
   xmlns:svg="http://www.w3.org/2000/svg"><defs
     id="defs1" /><sodipodi:namedview
     id="namedview1"
     pagecolor="#505050"
     bordercolor="#ffffff"
     borderopacity="1"
     inkscape:showpageshadow="0"
     inkscape:pageopacity="0"
     inkscape:pagecheckerboard="1"
     inkscape:deskcolor="#505050"
     inkscape:zoom="1.1614781"
     inkscape:cx="106.76051"
     inkscape:cy="230.30998"
     inkscape:window-width="1920"
     inkscape:window-height="1051"
     inkscape:window-x="-9"
     inkscape:window-y="-9"
     inkscape:window-maximized="1"
     inkscape:current-layer="Layer_1" /><path
     d="m 474.10642,256.21115 c -22.13452,0 -32.62981,15.59767 -36.31587,32.06692 -13.27346,59.26752 -69.59939,149.51248 -181.5794,149.51248 -100.2863,0 -181.579392,-81.31126 -181.579392,-181.5794 0,-100.26814 81.293092,-181.579392 181.579392,-181.579392 40.67379,0 77.98835,13.672928 108.22132,36.315882 h -35.58956 c -20.04637,0 -36.31588,16.26951 -36.31588,36.31588 0,20.04636 16.26951,36.31587 36.31588,36.31587 h 108.94764 c 20.04636,0 36.31587,-16.26951 36.31587,-36.31587 V 38.315879 C 474.10642,18.269514 457.83691,2 437.79055,2 417.74418,2 401.47467,18.269514 401.47467,38.315879 v 9.405812 C 360.31062,18.9232 310.26734,2 256.21115,2 115.81396,2 2,115.81396 2,256.21115 2,396.60834 115.81396,510.4223 256.21115,510.4223 c 181.19808,0 254.21115,-172.50042 254.21115,-215.62553 0,-26.38348 -19.28373,-38.58562 -36.31588,-38.58562 z"
     id="path1"
     style="fill:#ffffff;stroke-width:18.1579" /></svg>
