<?xml version="1.0" encoding="UTF-8" standalone="no"?>
<!-- Created with Inkscape (http://www.inkscape.org/) -->

<svg
   width="128"
   height="128"
   viewBox="0 0 128 128"
   version="1.1"
   id="svg1"
   inkscape:version="1.3.2 (091e20e, 2023-11-25, custom)"
   sodipodi:docname="sniper_rifle.svg"
   xmlns:inkscape="http://www.inkscape.org/namespaces/inkscape"
   xmlns:sodipodi="http://sodipodi.sourceforge.net/DTD/sodipodi-0.dtd"
   xmlns="http://www.w3.org/2000/svg"
   xmlns:svg="http://www.w3.org/2000/svg">
  <sodipodi:namedview
     id="namedview1"
     pagecolor="#505050"
     bordercolor="#ffffff"
     borderopacity="1"
     inkscape:showpageshadow="0"
     inkscape:pageopacity="0"
     inkscape:pagecheckerboard="1"
     inkscape:deskcolor="#505050"
     inkscape:document-units="mm"
     inkscape:zoom="6.5703125"
     inkscape:cx="63.9239"
     inkscape:cy="39.648038"
     inkscape:window-width="1920"
     inkscape:window-height="1051"
     inkscape:window-x="-9"
     inkscape:window-y="-9"
     inkscape:window-maximized="1"
     inkscape:current-layer="layer1" />
  <defs
     id="defs1" />
  <g
     inkscape:label="图层 1"
     inkscape:groupmode="layer"
     id="layer1">
    <path
       style="fill:#ffffff;stroke:#d8d8d8;stroke-width:5.408;stroke-linejoin:round;paint-order:stroke fill markers"
       d="m 3.196195,40.789536 39.115339,-0.304399 0.3044,-6.24019 -15.980976,-0.1522 0.3044,-6.84899 42.007134,0.1522 -0.608799,6.08799 -17.198573,0.760999 0.152199,6.39239 57.227111,-0.456599 v 3.500595 l 15.21998,0.1522 0,3.957193 -14.76338,0.1522 -0.761,2.739596 -44.1388,0.345509 1.6112,12.350218 -10.432065,0.2278 C 47.578453,54.109627 52.506693,62.132002 45.958066,53.100089 L 30.439952,51.29132 21.307967,68.946492 14.306778,67.576695 21.764566,52.204518 9.1319857,59.205707 2.7395957,57.83591 C 2.809487,53.103353 3.3189866,46.057713 3.196195,40.789536 Z"
       id="path1"
       sodipodi:nodetypes="cccccccccccccccccccccccccc" />
  </g>
</svg>
