<?xml version="1.0" encoding="UTF-8" standalone="no"?>
<!-- Created with Inkscape (http://www.inkscape.org/) -->

<svg
   width="1052"
   height="648"
   viewBox="0 0 1052 648"
   version="1.1"
   id="svg1"
   inkscape:version="1.3.2 (091e20e, 2023-11-25, custom)"
   xml:space="preserve"
   sodipodi:docname="launch_image.svg"
   inkscape:export-filename="launch_image.png"
   inkscape:export-xdpi="96"
   inkscape:export-ydpi="96"
   xmlns:inkscape="http://www.inkscape.org/namespaces/inkscape"
   xmlns:sodipodi="http://sodipodi.sourceforge.net/DTD/sodipodi-0.dtd"
   xmlns:xlink="http://www.w3.org/1999/xlink"
   xmlns="http://www.w3.org/2000/svg"
   xmlns:svg="http://www.w3.org/2000/svg"><sodipodi:namedview
     id="namedview1"
     pagecolor="#000000"
     bordercolor="#ffffff"
     borderopacity="1"
     inkscape:showpageshadow="0"
     inkscape:pageopacity="0"
     inkscape:pagecheckerboard="1"
     inkscape:deskcolor="#505050"
     inkscape:document-units="mm"
     inkscape:export-bgcolor="#ffffff00"
     inkscape:zoom="0.82128906"
     inkscape:cx="338.49227"
     inkscape:cy="348.84185"
     inkscape:window-width="1920"
     inkscape:window-height="1051"
     inkscape:window-x="-9"
     inkscape:window-y="-9"
     inkscape:window-maximized="1"
     inkscape:current-layer="layer1" /><defs
     id="defs1" /><g
     inkscape:label="图层 1"
     inkscape:groupmode="layer"
     id="layer1"><rect
       style="fill:#ffffff;fill-opacity:0;stroke:#000000;stroke-width:1.6;stroke-linejoin:round;stroke-opacity:1"
       id="rect1"
       width="1052.1077"
       height="649.17279"
       x="0"
       y="0" /><rect
       style="display:none;fill:#d9d9d9;fill-opacity:1;stroke:#000000;stroke-width:3.35972;stroke-linejoin:round;stroke-opacity:0"
       id="rect2"
       width="1048.6403"
       height="644.64026"
       x="1.679859"
       y="1.679859" /><text
       xml:space="preserve"
       style="font-size:27.3936px;fill:#ffffff;fill-opacity:1;stroke:#ffffff;stroke-width:1.23078;stroke-linejoin:round;stroke-dasharray:none;stroke-opacity:0.93206501"
       x="394.57269"
       y="602.13287"
       id="text2"><tspan
         sodipodi:role="line"
         id="tspan2"
         x="394.57269"
         y="602.13287"
         style="fill:#ffffff;fill-opacity:1;stroke:#ffffff;stroke-width:1.23078;stroke-dasharray:none;stroke-opacity:0.93206501">Made With GodotEngine</tspan></text><image
       preserveAspectRatio="none"
       inkscape:svg-dpi="96"
       width="568.82416"
       height="142.20604"
       xlink:href="../logo_momentsum.svg"
       id="image1"
       x="251.73915"
       y="239.62546" /><g
       id="g2"
       transform="matrix(0.66933687,0,0,0.66933687,314.9047,543.22626)"><rect
         x="2"
         y="2"
         width="124"
         height="124"
         rx="14"
         fill="#363d52"
         stroke="#212532"
         stroke-width="4"
         id="rect1-1"
         style="display:none" /><g
         transform="matrix(0.101,0,0,0.101,12.322,12.322)"
         id="g7"><g
           fill="#ffffff"
           id="g4"
           style="display:inline"><path
             d="m 105,673 v 33 q 407,354 814,0 v -33 z"
             id="path1"
             style="display:inline;fill:#ececec" /><path
             fill="#478cbf"
             d="m 105,673 152,14 q 12,1 15,14 l 4,67 132,10 8,-61 q 2,-11 15,-15 h 162 q 13,4 15,15 l 8,61 132,-10 4,-67 q 3,-13 15,-14 L 919,673 V 427 q 30,-39 56,-81 -35,-59 -83,-108 -43,20 -82,47 -40,-37 -88,-64 7,-51 8,-102 -59,-28 -123,-42 -26,43 -46,89 -49,-7 -98,0 -20,-46 -46,-89 -64,14 -123,42 1,51 8,102 -48,27 -88,64 -39,-27 -82,-47 -48,49 -83,108 26,42 56,81 z m 0,33 v 39 c 0,276 813,276 813,0 v -39 l -134,12 -5,69 q -2,10 -14,13 l -162,11 q -12,0 -16,-11 L 577,735 H 447 l -10,65 q -4,11 -16,11 L 259,800 q -12,-3 -14,-13 l -5,-69 z"
             id="path2"
             style="display:inline" /><path
             d="m 483,600 c 3,34 55,34 58,0 v -86 c -3,-34 -55,-34 -58,0 z"
             id="path3"
             style="fill:#ececec" /><circle
             cx="725"
             cy="526"
             r="90"
             id="circle3"
             style="fill:#e6e6e6" /><circle
             cx="299"
             cy="526"
             r="90"
             id="circle4"
             style="display:inline;fill:#e6e6e6" /></g><g
           fill="#414042"
           id="g6"
           style="display:inline"><circle
             cx="307"
             cy="532"
             r="60"
             id="circle5" /><circle
             cx="717"
             cy="532"
             r="60"
             id="circle6" /></g></g></g></g></svg>
